<?xml version="1.0" standalone="no"?>
<!DOCTYPE svg PUBLIC "-//W3C//DTD SVG 20010904//EN"
 "http://www.w3.org/TR/2001/REC-SVG-20010904/DTD/svg10.dtd">
<svg version="1.0" xmlns="http://www.w3.org/2000/svg"
 width="1176.000000pt" height="1176.000000pt" viewBox="0 0 1176.000000 1176.000000"
 preserveAspectRatio="xMidYMid meet">
<metadata>
Created by potrace 1.14, written by Peter Selinger 2001-2017
</metadata>
<g transform="translate(0.000000,1176.000000) scale(0.100000,-0.100000)"
fill="#000000" stroke="none">
<path d="M5968 9728 c-20 -24 -46 -55 -59 -69 -13 -14 -53 -59 -89 -99 -36
-40 -76 -86 -90 -101 -14 -15 -36 -40 -49 -56 -25 -29 -152 -174 -161 -183 -5
-5 -113 -127 -185 -209 -16 -19 -39 -44 -50 -56 -11 -13 -42 -49 -70 -81 -27
-32 -57 -65 -65 -74 -8 -8 -62 -69 -120 -135 -58 -66 -107 -122 -110 -125 -7
-7 -139 -156 -176 -199 -16 -18 -41 -46 -55 -62 -14 -15 -48 -54 -75 -85 -27
-31 -58 -66 -69 -78 -25 -28 -139 -157 -185 -210 -34 -39 -87 -98 -140 -157
-14 -15 -41 -46 -60 -70 -19 -23 -58 -66 -86 -95 -28 -30 -49 -54 -47 -54 2 0
-13 -18 -34 -41 -21 -23 -48 -52 -60 -66 -13 -13 -23 -28 -23 -34 0 -5 -7 -9
-15 -9 -8 0 -15 -4 -15 -10 0 -5 -13 -23 -30 -40 -16 -17 -30 -33 -30 -36 0
-3 -10 -15 -23 -27 -12 -12 -49 -53 -82 -91 -33 -38 -73 -83 -88 -100 -16 -17
-47 -53 -70 -80 -23 -26 -55 -63 -72 -80 -27 -29 -91 -102 -155 -176 -46 -53
-136 -155 -159 -179 -13 -14 -42 -48 -65 -74 -22 -27 -52 -61 -66 -76 -14 -15
-50 -56 -80 -90 -30 -35 -64 -73 -75 -85 -11 -12 -49 -55 -85 -96 -67 -77
-110 -125 -145 -164 -11 -12 -43 -49 -72 -82 -28 -32 -62 -70 -75 -84 -12 -15
-48 -55 -78 -90 -30 -35 -71 -80 -90 -101 -19 -21 -50 -56 -69 -78 -18 -23
-45 -53 -60 -69 -32 -34 -142 -158 -171 -192 -11 -14 -43 -50 -70 -80 -27 -30
-70 -80 -97 -110 -26 -30 -58 -65 -70 -78 -13 -12 -23 -25 -23 -28 0 -3 -12
-18 -27 -33 -16 -14 -55 -58 -88 -96 -32 -39 -66 -77 -75 -86 -8 -9 -40 -44
-70 -79 -30 -34 -66 -75 -80 -90 -37 -41 -126 -142 -221 -250 -45 -52 -87
-100 -93 -106 -6 -6 -38 -42 -71 -79 -33 -38 -69 -79 -80 -91 -12 -12 -39 -44
-60 -69 -22 -26 -53 -62 -70 -79 -16 -18 -52 -59 -80 -90 -27 -32 -61 -70 -75
-85 -14 -15 -50 -56 -80 -91 -30 -35 -62 -71 -70 -80 -8 -9 -42 -47 -75 -85
-33 -37 -69 -78 -80 -89 -11 -12 -51 -57 -90 -101 -38 -44 -74 -85 -80 -91 -5
-6 -35 -39 -65 -74 -30 -35 -72 -82 -92 -104 l-36 -41 658 -5 659 -5 -50 -55
c-28 -30 -74 -83 -102 -117 -29 -35 -55 -63 -59 -63 -5 0 -8 -7 -8 -16 0 -8
-4 -12 -10 -9 -5 3 -10 2 -10 -2 0 -5 -12 -22 -28 -39 -15 -17 -46 -52 -69
-77 -23 -26 -39 -47 -36 -47 3 0 -5 -9 -18 -21 -13 -12 -23 -26 -21 -31 1 -5
-1 -7 -6 -4 -5 3 -24 -13 -42 -36 -19 -22 -40 -47 -48 -54 -7 -8 -12 -14 -10
-14 2 0 -19 -24 -48 -54 -28 -30 -66 -74 -85 -97 -19 -23 -52 -61 -74 -84 -61
-65 -150 -167 -153 -176 -2 -5 2443 -9 5433 -9 l5436 0 -23 24 c-13 13 -39 43
-58 67 -19 24 -49 58 -67 76 -17 18 -30 33 -27 33 2 0 -4 9 -13 19 -9 11 -20
18 -25 15 -4 -3 -8 2 -8 10 0 9 -8 24 -17 34 -10 10 -52 58 -93 107 -104 124
-122 145 -147 171 -13 13 -23 26 -23 29 0 3 -13 19 -30 35 -16 16 -30 32 -30
35 0 3 -10 16 -22 29 -13 13 -39 42 -58 66 -19 23 -43 52 -53 64 -59 70 -106
124 -136 158 l-33 38 641 0 c352 0 641 3 641 6 0 7 -83 109 -145 178 -5 6 -32
38 -60 71 -27 33 -54 65 -60 71 -14 15 -91 106 -160 189 -33 39 -61 72 -64 75
-6 5 -147 171 -181 213 -8 10 -24 29 -35 41 -11 12 -40 46 -65 76 -68 81 -117
139 -169 199 -51 60 -69 81 -91 108 -49 60 -236 281 -249 294 -9 9 -34 38 -56
64 -45 55 -71 86 -100 118 -11 13 -38 45 -60 71 -22 27 -50 60 -63 75 -42 47
-57 65 -102 120 -25 30 -56 67 -70 81 -14 15 -38 44 -55 65 -16 20 -40 49 -53
64 -29 32 -54 62 -112 130 -25 30 -53 63 -63 75 -11 11 -33 38 -50 60 -18 21
-45 53 -60 70 -16 17 -38 44 -50 59 -12 15 -33 40 -47 56 -14 15 -44 50 -67
77 -22 27 -74 87 -113 134 -40 47 -92 108 -115 135 -23 28 -109 129 -191 225
-82 96 -153 181 -159 187 -5 7 -21 26 -35 41 -14 16 -45 53 -70 82 -48 58
-164 195 -210 247 -15 18 -59 70 -96 115 -38 46 -71 85 -74 88 -3 3 -30 34
-60 70 -30 36 -72 83 -92 105 -21 22 -38 44 -38 48 0 5 -8 16 -19 25 -10 10
-74 82 -141 162 -67 80 -132 156 -144 170 -11 14 -57 68 -101 120 -44 52 -84
100 -90 106 -5 6 -30 35 -55 64 -25 29 -49 58 -55 64 -5 6 -32 38 -59 71 -28
33 -56 67 -63 75 -26 29 -59 67 -100 116 -23 27 -51 60 -63 74 -12 14 -36 42
-53 64 -18 21 -50 59 -72 84 -22 24 -46 54 -54 66 -8 12 -18 23 -21 26 -4 3
-36 39 -71 80 -93 110 -92 109 -114 133 -11 12 -40 47 -65 77 -25 30 -49 60
-55 66 -5 6 -30 35 -54 64 -25 29 -50 58 -55 64 -6 6 -31 36 -56 66 -25 30
-52 62 -60 70 -8 9 -33 38 -55 65 -22 27 -45 53 -50 59 -6 6 -37 43 -69 81
-32 39 -75 90 -96 115 -54 62 -75 87 -123 144 -64 75 -178 210 -187 219 -4 4
-23 -11 -42 -35z m-203 -7576 c-3 -3 -11 0 -18 7 -9 10 -8 11 6 5 10 -3 15 -9
12 -12z"/>
</g>
</svg>
