<svg xmlns="http://www.w3.org/2000/svg" xmlns:xlink="http://www.w3.org/1999/xlink" width="201" height="120" viewBox="0 0 201 120">
  <defs>
    <clipPath id="clip-path">
      <rect id="Rectangle_27" data-name="Rectangle 27" width="201" height="120" transform="translate(1617 1100)" fill="#fff" stroke="#707070" stroke-width="1"/>
    </clipPath>
    <linearGradient id="linear-gradient" x1="0.5" x2="0.5" y2="1" gradientUnits="objectBoundingBox">
      <stop offset="0" stop-color="#dd4bec"/>
      <stop offset="1" stop-color="#5a7cf7"/>
    </linearGradient>
    <linearGradient id="linear-gradient-2" x1="0.5" x2="0.5" y2="1" gradientUnits="objectBoundingBox">
      <stop offset="0" stop-color="#dd4bec"/>
      <stop offset="1" stop-color="#4769e4"/>
    </linearGradient>
  </defs>
  <g id="Mask_Group_13" data-name="Mask Group 13" transform="translate(-1617 -1100)" clip-path="url(#clip-path)">
    <g id="ac63d21afc7e3ecc8768b8f2d14da37d" transform="translate(1653.504 1095.997)">
      <path id="Path_100" data-name="Path 100" d="M27.339,94.957a47.638,47.638,0,0,1-11.16-26.919v-8.08a47.638,47.638,0,0,1,11.16-26.919l5.7-5.7a47.638,47.638,0,0,1,26.919-11.16h8.08a47.638,47.638,0,0,1,26.919,11.16l5.7,5.7a47.638,47.638,0,0,1,11.16,26.919v8.08a47.638,47.638,0,0,1-11.16,26.919l-5.7,5.7a47.638,47.638,0,0,1-26.919,11.16h-8.08a47.638,47.638,0,0,1-26.919-11.16Z" fill="url(#linear-gradient)"/>
      <path id="Path_101" data-name="Path 101" d="M64,6l2.472,5.266L72,12.112l-4,4.1L68.942,22,64,19.265,59.054,22,60,16.211l-4-4.1,5.528-.846Zm0,116-2.472-5.266L56,115.884l4-4.1L59.054,106,64,108.73,68.942,106,68,111.784l4,4.1-5.528.846Z" fill="rgba(200,125,206,0.79)"/>
      <path id="Path_102" data-name="Path 102" d="M122,64,116.73,66.47,115.884,72l-4.1-4L106,68.942,108.73,64,106,59.054l5.788.944,4.1-4,.846,5.528ZM6,64l5.266-2.472L12.112,56l4.1,4L22,59.054,19.265,64,22,68.942,16.211,68l-4.1,4-.846-5.528Z" fill="rgba(200,125,206,0.79)"/>
      <path id="Path_103" data-name="Path 103" d="M105.008,22.987l-1.976,5.472,3.312,4.506-5.728.07L97.19,37.8l-1.562-5.43L90.2,30.8l4.762-3.426.07-5.728,4.506,3.312,5.472-1.976ZM22.987,105.008l1.976-5.472-3.312-4.506,5.728-.07L30.8,90.2l1.562,5.43L37.8,97.19l-4.762,3.426-.07,5.728-4.506-3.312-5.472,1.976Z" fill="rgba(200,125,206,0.79)"/>
      <path id="Path_104" data-name="Path 104" d="M105.008,105.008l-5.472-1.976-4.506,3.312-.07-5.728L90.2,97.19l5.43-1.562L97.19,90.2l3.426,4.762,5.728.07-3.312,4.506ZM22.987,22.987l5.472,1.976,4.506-3.312.07,5.728L37.8,30.8l-5.43,1.562L30.8,37.8l-3.426-4.762-5.728-.07,3.312-4.506-1.976-5.472Z" fill="rgba(200,125,206,0.79)"/>
      <circle id="Ellipse_49" data-name="Ellipse 49" cx="33.999" cy="33.999" r="33.999" transform="translate(29.999 29.999)" fill="#534f8d"/>
      <path id="Path_105" data-name="Path 105" d="M40,54H88V74H40Z" fill="url(#linear-gradient-2)"/>
      <path id="Path_106" data-name="Path 106" d="M48,60H80v8H48Z" fill="#8f89e8"/>
      <path id="Path_107" data-name="Path 107" d="M122.846,62.2l-4.3-2.02-.682-4.472a2,2,0,0,0-3.374-1.13l-1.188,1.16a49.362,49.362,0,0,0-8.6-20.741l1.67-.02a2,2,0,0,0,1.586-3.184l-2.68-3.656,1.612-4.468a2,2,0,0,0-2.56-2.56L99.86,22.719l-3.646-2.678a2,2,0,0,0-3.184,1.586l-.02,1.67a49.362,49.362,0,0,0-20.741-8.6l1.16-1.188a2,2,0,0,0-1.13-3.374l-4.472-.682-2.02-4.3a2,2,0,0,0-3.62,0l-2.02,4.3-4.472.682a2,2,0,0,0-1.13,3.374l1.16,1.188a49.362,49.362,0,0,0-20.741,8.6l-.02-1.67a2,2,0,0,0-3.184-1.586l-3.646,2.678-4.468-1.612a2,2,0,0,0-2.56,2.56l1.612,4.468-2.678,3.646a2,2,0,0,0,1.586,3.184l1.67.02a49.362,49.362,0,0,0-8.6,20.741l-1.188-1.16a2,2,0,0,0-3.374,1.13l-.682,4.472L5.15,62.2a2,2,0,0,0,0,3.62l4.3,2.02.682,4.472a2,2,0,0,0,3.374,1.13l1.188-1.16a49.362,49.362,0,0,0,8.6,20.741l-1.67.02a2,2,0,0,0-1.586,3.184l2.678,3.646-1.612,4.468a2,2,0,0,0,2.56,2.56l4.468-1.612,3.646,2.678a2,2,0,0,0,3.184-1.586l.02-1.67a49.362,49.362,0,0,0,20.741,8.6l-1.16,1.188a2,2,0,0,0,1.13,3.374l4.472.682,2.02,4.3a2,2,0,0,0,3.62,0l2.02-4.3,4.472-.682a2,2,0,0,0,1.13-3.374l-1.16-1.188a49.362,49.362,0,0,0,20.741-8.6l.02,1.67a2,2,0,0,0,3.184,1.586l3.646-2.678,4.468,1.612a2,2,0,0,0,2.56-2.56l-1.612-4.468,2.678-3.646a2,2,0,0,0-1.586-3.184l-1.67-.02a49.362,49.362,0,0,0,8.6-20.741l1.188,1.16a2,2,0,0,0,3.374-1.13l.682-4.472,4.3-2.02a2,2,0,0,0,0-3.62ZM96.129,29a2,2,0,0,0,.832-1.6l.022-1.834,1.37,1a2,2,0,0,0,1.862.268l1.466-.528-.528,1.466a2,2,0,0,0,.268,1.862l1,1.37-1.834.022a2,2,0,0,0-1.6.832l-1.022,1.418L97.54,31.8a2,2,0,0,0-1.368-1.368l-1.47-.424Zm-34.3-15.755a2,2,0,0,0,1.508-1.128l.662-1.4.662,1.4a2,2,0,0,0,1.508,1.128l1.68.256-1.282,1.314a2,2,0,0,0-.542,1.72l.282,1.722-1.34-.74a2,2,0,0,0-1.936,0l-1.34.74.282-1.722a2,2,0,0,0-.542-1.72L60.148,13.5ZM26.843,27.781l-.528-1.466,1.466.528a3.623,3.623,0,0,0,1.862-.268l1.37-1,.022,1.834a2,2,0,0,0,.832,1.6l1.418,1.022-1.47.424a2,2,0,0,0-1.368,1.368l-.424,1.47L29,31.875a2,2,0,0,0-1.6-.832l-1.834-.022,1-1.37a2,2,0,0,0,.276-1.87ZM17.515,64.966l.74,1.34-1.722-.282a2.014,2.014,0,0,0-1.72.542L13.5,67.848l-.256-1.68a2,2,0,0,0-1.128-1.508L10.708,64l1.4-.662a2,2,0,0,0,1.128-1.508l.256-1.68,1.314,1.282a2,2,0,0,0,1.72.542l1.722-.282-.74,1.34A2,2,0,0,0,17.515,64.966ZM31.867,99a2,2,0,0,0-.832,1.6l-.022,1.834-1.37-1a2,2,0,0,0-1.862-.268l-1.466.528.528-1.466a2,2,0,0,0-.268-1.862l-1-1.37,1.834-.022a2,2,0,0,0,1.6-.832l1.022-1.418.424,1.47a2,2,0,0,0,1.368,1.368l1.47.424Zm34.3,15.757a2,2,0,0,0-1.508,1.128l-.662,1.4-.662-1.4a2,2,0,0,0-1.508-1.128l-1.68-.256,1.282-1.314a2,2,0,0,0,.542-1.72l-.282-1.722,1.34.74a2,2,0,0,0,1.936,0l1.34-.74-.282,1.722a2,2,0,0,0,.542,1.72l1.282,1.314Zm34.985-14.537.528,1.466-1.466-.528a2,2,0,0,0-1.862.268l-1.37,1-.022-1.834a2,2,0,0,0-.832-1.6l-1.418-1.022,1.47-.424a2,2,0,0,0,1.368-1.368l.424-1.47,1.022,1.418a2,2,0,0,0,1.6.832l1.834.022-1,1.37a2,2,0,0,0-.276,1.868Zm3.094-40.2,2.2,3.98-2.2,3.976a2,2,0,0,0,2.072,2.942l3.2-.522A45.378,45.378,0,0,1,100.7,91.655l-1.888-2.624a2,2,0,0,0-3.546.614l-1.258,4.366-4.366,1.258a2,2,0,0,0-.614,3.546l2.624,1.888A45.378,45.378,0,0,1,70.4,109.518l.522-3.2a2,2,0,0,0-2.942-2.072l-3.98,2.2-3.976-2.2a2,2,0,0,0-2.942,2.072l.522,3.2A45.378,45.378,0,0,1,36.341,100.7l2.624-1.888a2,2,0,0,0-.614-3.546l-4.366-1.258-1.258-4.366a2,2,0,0,0-3.546-.614l-1.888,2.624A45.378,45.378,0,0,1,18.477,70.4l3.2.522a2,2,0,0,0,2.072-2.942L21.551,64l2.2-3.976a2,2,0,0,0-2.072-2.942l-3.2.522A45.378,45.378,0,0,1,27.3,36.341l1.888,2.624a2,2,0,0,0,3.546-.614l1.258-4.366,4.366-1.258a2,2,0,0,0,.614-3.546l-2.624-1.888A45.378,45.378,0,0,1,57.6,18.477l-.522,3.2a2,2,0,0,0,2.942,2.072l3.98-2.2,3.976,2.2a2,2,0,0,0,2.942-2.072l-.522-3.2A45.378,45.378,0,0,1,91.655,27.3l-2.624,1.888a2,2,0,0,0,.614,3.546l4.366,1.258,1.258,4.366a2,2,0,0,0,3.546.614l1.888-2.624A45.378,45.378,0,0,1,109.518,57.6l-3.2-.522a2,2,0,0,0-2.072,2.942Zm11.634,4.638a2,2,0,0,0-1.128,1.508l-.256,1.68-1.314-1.282A2,2,0,0,0,111.8,66a1.966,1.966,0,0,0-.324.026l-1.722.282.74-1.34a2,2,0,0,0,0-1.936l-.74-1.34,1.722.282a2,2,0,0,0,1.72-.542l1.314-1.282.256,1.68a2,2,0,0,0,1.128,1.508l1.4.662Z" fill="none"/>
      <path id="Path_108" data-name="Path 108" d="M64,28a36,36,0,1,0,36,36A36,36,0,0,0,64,28Zm0,68A32,32,0,1,1,96,64,32,32,0,0,1,64,96Z" fill="none"/>
      <path id="Path_109" data-name="Path 109" d="M38,54V74a2,2,0,0,0,2,2H88a2,2,0,0,0,2-2V54a2,2,0,0,0-2-2H40A2,2,0,0,0,38,54Zm4,2H86V72H42Z" fill="none"/>
      <path id="Path_110" data-name="Path 110" d="M80,58H48a2,2,0,0,0-2,2v8a2,2,0,0,0,2,2H80a2,2,0,0,0,2-2V60A2,2,0,0,0,80,58Zm-2,8H50V62H78Z" fill="none"/>
    </g>
  </g>
</svg>
