<svg xmlns="http://www.w3.org/2000/svg" xmlns:xlink="http://www.w3.org/1999/xlink" width="201" height="120" viewBox="0 0 201 120">
  <defs>
    <clipPath id="clip-path">
      <rect id="Rectangle_32" data-name="Rectangle 32" width="201" height="120" transform="translate(977 1520)" fill="#fff" stroke="#707070" stroke-width="1"/>
    </clipPath>
    <linearGradient id="linear-gradient" x1="0.5" x2="0.5" y2="1" gradientUnits="objectBoundingBox">
      <stop offset="0" stop-color="#ffc107"/>
      <stop offset="1" stop-color="#f8e7b3"/>
    </linearGradient>
    <linearGradient id="linear-gradient-2" x1="0.5" x2="0.5" y2="1" gradientUnits="objectBoundingBox">
      <stop offset="0" stop-color="#dd4bec"/>
      <stop offset="1" stop-color="#5a7cf7"/>
    </linearGradient>
    <linearGradient id="linear-gradient-4" x1="0.5" x2="0.5" y2="1" gradientUnits="objectBoundingBox">
      <stop offset="0" stop-color="#dd4bec"/>
      <stop offset="1" stop-color="#3651b3"/>
    </linearGradient>
    <linearGradient id="linear-gradient-5" x1="0.5" x2="0.5" y2="1" gradientUnits="objectBoundingBox">
      <stop offset="0" stop-color="#701d79"/>
      <stop offset="1" stop-color="#5a7cf7"/>
    </linearGradient>
  </defs>
  <g id="Mask_Group_12" data-name="Mask Group 12" transform="translate(-977 -1520)" clip-path="url(#clip-path)">
    <g id="_6acae3c348470e64a1d0bbc861972dbc" data-name="6acae3c348470e64a1d0bbc861972dbc" transform="translate(1004.479 -566.917)">
      <path id="Path_81" data-name="Path 81" d="M52.528,2163.42H77.741a10.482,10.482,0,0,1,10.506,10.505v32.987H42.022v-32.987A10.482,10.482,0,0,1,52.528,2163.42Z" fill="#263238"/>
      <rect id="Rectangle_115" data-name="Rectangle 115" width="4.202" height="27.314" transform="translate(50.426 2179.599)" fill="#455a64"/>
      <rect id="Rectangle_116" data-name="Rectangle 116" width="3.992" height="27.314" transform="translate(75.85 2179.599)" fill="#455a64"/>
      <circle id="Ellipse_36" data-name="Ellipse 36" cx="7.238" cy="7.238" r="7.238" transform="matrix(0.966, -0.259, 0.259, 0.966, 88.898, 2112.529)" fill="#cfd8dc"/>
      <circle id="Ellipse_37" data-name="Ellipse 37" cx="7.236" cy="7.236" r="7.236" transform="matrix(0.966, -0.259, 0.259, 0.966, 80.767, 2106.146)" fill="#cfd8dc"/>
      <circle id="Ellipse_38" data-name="Ellipse 38" cx="9.306" cy="9.306" r="9.306" transform="matrix(0.966, -0.259, 0.259, 0.966, 89.146, 2097.478)" fill="#cfd8dc"/>
      <circle id="Ellipse_39" data-name="Ellipse 39" cx="11.373" cy="11.373" r="11.373" transform="matrix(0.966, -0.259, 0.259, 0.966, 98.598, 2092.805)" fill="#cfd8dc"/>
      <circle id="Ellipse_40" data-name="Ellipse 40" cx="10.861" cy="10.861" r="10.861" transform="matrix(0.966, -0.259, 0.259, 0.966, 95.194, 2108.545)" fill="#cfd8dc"/>
      <circle id="Ellipse_41" data-name="Ellipse 41" cx="10.34" cy="10.34" r="10.34" transform="matrix(0.966, -0.259, 0.259, 0.966, 107.265, 2101.187)" fill="#cfd8dc"/>
      <circle id="Ellipse_42" data-name="Ellipse 42" cx="3.673" cy="3.673" r="3.673" transform="matrix(0.966, -0.259, 0.259, 0.966, 77.611, 2122.221)" fill="#cfd8dc"/>
      <circle id="Ellipse_43" data-name="Ellipse 43" cx="2.448" cy="2.448" r="2.448" transform="matrix(0.966, -0.259, 0.259, 0.966, 72.99, 2129.208)" fill="#cfd8dc"/>
      <path id="Path_82" data-name="Path 82" d="M104.013,2110.241h7.619v7.074h-7.619Z" fill="#ffc107"/>
      <circle id="Ellipse_44" data-name="Ellipse 44" cx="8.163" cy="8.163" r="8.163" transform="translate(99.657 2096.658)" fill="url(#linear-gradient)"/>
      <path id="Path_83" data-name="Path 83" d="M107.82,2107.531v7.619" fill="none" stroke="#e9eded" stroke-width="2.101"/>
      <path id="Path_84" data-name="Path 84" d="M105.1,2118.141h5.442v5.442H105.1Z" fill="#263238"/>
      <path id="Path_85" data-name="Path 85" d="M107.82,2096.647a8.159,8.159,0,0,1,3.809,15.376v5.3h-1.088v-5.3a8.153,8.153,0,0,0-3.326-15.353q.3-.023.605-.023Z" fill="#ff9800"/>
      <path id="Path_86" data-name="Path 86" d="M103.469,2114.464h8.707v6.667h-8.707Z" fill="url(#linear-gradient-2)"/>
      <rect id="Rectangle_117" data-name="Rectangle 117" width="9.947" height="2.116" rx="1.058" transform="translate(102.954 2116.566)" fill="#263238"/>
      <path id="Path_87" data-name="Path 87" d="M110.541,2107.678H105.1" fill="none" stroke="#e9eded" stroke-width="2.101"/>
      <path id="Path_88" data-name="Path 88" d="M101.752,2105.661a6.8,6.8,0,0,1,6.8-6.8" fill="none" stroke="#ffeb3b" stroke-width="1.225"/>
      <path id="Path_89" data-name="Path 89" d="M33.618,2108.161v6.747a11.564,11.564,0,0,0-2.471,1.034l-4.776-4.776-4.456,4.457,4.77,4.77a11.562,11.562,0,0,0-1.019,2.479H18.91v6.3h6.745a11.555,11.555,0,0,0,1.036,2.469l-4.776,4.776,4.454,4.458,4.77-4.77a11.553,11.553,0,0,0,2.479,1.017v6.755h6.3v-6.745a11.554,11.554,0,0,0,2.471-1.036l4.776,4.776,4.456-4.454-4.77-4.77a11.557,11.557,0,0,0,1.019-2.479h6.755v-6.3H47.884a11.555,11.555,0,0,0-1.032-2.475l4.772-4.772-4.454-4.456-4.77,4.77a11.553,11.553,0,0,0-2.479-1.019v-6.755Z" fill="url(#linear-gradient-2)"/>
      <circle id="Ellipse_45" data-name="Ellipse 45" cx="5.253" cy="5.253" r="5.253" transform="translate(31.517 2120.768)" fill="#e9eded" stroke="#263238" stroke-linecap="round" stroke-linejoin="round" stroke-width="2.101"/>
      <path id="Path_90" data-name="Path 90" d="M112.964,2089.474a11.429,11.429,0,0,0-1.446.044,11.373,11.373,0,0,1,9.9,8.375q.127.49.21.99a10.323,10.323,0,0,1-4.677,19.9,10.728,10.728,0,0,1-9.507,8.232,10.809,10.809,0,0,0,11.609-8.232,10.326,10.326,0,0,0,4.679-19.9q-.085-.5-.214-.988a11.373,11.373,0,0,0-10.55-8.421Zm-12.14,5.276a9.256,9.256,0,0,0-1.313.063,9.3,9.3,0,0,1,1.149.2q.08-.13.164-.259ZM89.1,2104.037q-.26.023-.517.065.29.041.576.105,0-.084,0-.168H89.1Zm-6.845,17.1a3.667,3.667,0,0,0-1.09.122l-.1.034a3.667,3.667,0,0,1,0,7.03,3.671,3.671,0,1,0,1.193-7.186Zm16.674,2.95a6.519,6.519,0,0,1-2.21.7,7.241,7.241,0,0,0,2.858-.147q-.334-.265-.647-.555Zm-22.845,4.4a2.428,2.428,0,0,0-1.145.237,2.446,2.446,0,0,1,0,4.421,2.448,2.448,0,1,0,1.141-4.658Z" fill="#b0bec5"/>
      <path id="Path_91" data-name="Path 91" d="M37.82,2108.161v6.755a11.564,11.564,0,0,1,2.479,1.017l.66-.66q-.51-.2-1.038-.357v-6.755Zm-11.451,3-1.051,1.051,3.727,3.725a11.576,11.576,0,0,1,1.424-.677l-4.1-4.1Zm20.8,0-1.051,1.051,3.4,3.4-4.772,4.774a11.56,11.56,0,0,1,1.03,2.475h2.1a11.562,11.562,0,0,0-1.03-2.475l4.772-4.771Zm5.358,11.7v6.3h2.1v-6.3Zm-6.755,6.3a11.56,11.56,0,0,1-1.017,2.479l4.769,4.769-3.408,3.4,1.051,1.051,4.456-4.454-4.77-4.77a11.557,11.557,0,0,0,1.019-2.479h-2.1Zm-5.484,6.927a11.548,11.548,0,0,1-2.469,1.034v6.747h2.1v-6.745q.531-.153,1.046-.357l-.677-.679Zm-11.251.009-3.719,3.719,1.051,1.051,4.11-4.11a11.528,11.528,0,0,1-1.441-.66Z" fill="url(#linear-gradient-4)"/>
      <g id="Group_7" data-name="Group 7" transform="translate(9.247 0.843)">
        <path id="Path_92" data-name="Path 92" d="M16.309,2087.154l-1.076,4.017a7.117,7.117,0,0,0-1.635.221l-2.082-3.606-3.364,1.941,2.078,3.6a7.121,7.121,0,0,0-1,1.313l-4.019-1.078L4.2,2097.317l4.015,1.076a7.123,7.123,0,0,0,.223,1.635l-3.605,2.08,1.941,3.366,3.6-2.078a7.133,7.133,0,0,0,1.313,1l-1.076,4.021,3.75,1.006,1.078-4.017a7.131,7.131,0,0,0,1.635-.221l2.08,3.606,3.366-1.944-2.08-3.6a7.131,7.131,0,0,0,1-1.313l4.022,1.078,1.006-3.752-4.017-1.076a7.121,7.121,0,0,0-.219-1.639l3.6-2.078L23.9,2091.1l-3.6,2.078a7.114,7.114,0,0,0-1.313-1l1.078-4.021-3.753-1.007Z" fill="url(#linear-gradient-5)"/>
        <circle id="Ellipse_46" data-name="Ellipse 46" cx="3.238" cy="3.238" r="3.238" transform="matrix(0.966, 0.259, -0.259, 0.966, 13.047, 2094.333)" fill="#e9eded" stroke="#263238" stroke-linecap="round" stroke-linejoin="round" stroke-width="2.101"/>
        <path id="Path_93" data-name="Path 93" d="M16.309,2087.154l-.141.525,1.794.481-1.08,4.021a7.11,7.11,0,0,1,1.313,1l1.227-.71q-.214-.153-.439-.29l1.08-4.021Zm-4.795.63-1.576.912,1.555,2.7a7.127,7.127,0,0,1,1.639-.223l.105-.4-1.723-2.986ZM23.9,2091.1l-1.576.91,1.416,2.454-3.6,2.08a7.121,7.121,0,0,1,.219,1.639l4.013,1.076-.866,3.229,1.96.525,1.006-3.755-4.013-1.076a7.121,7.121,0,0,0-.219-1.639l3.6-2.08Zm-18.687,2.462-.141.525,2.059.549q.151-.244.321-.475Zm14.136,8.371a7.136,7.136,0,0,1-1,1.313l2.078,3.6-1.79,1.03.525.912,3.366-1.941-2.078-3.6a7.131,7.131,0,0,0,.679-.836ZM8.272,2103.4l-2.021,1.166.525.912L9.15,2104.1a7.145,7.145,0,0,1-.878-.706Zm6.7,1.79a7.114,7.114,0,0,1-1.639.223L12.4,2108.9l1.962.525.967-3.616Z" fill="url(#linear-gradient-4)"/>
      </g>
      <circle id="Ellipse_47" data-name="Ellipse 47" cx="13.867" cy="13.867" r="13.867" transform="translate(51.267 2133.375)" fill="#ffc107"/>
      <path id="Path_94" data-name="Path 94" d="M100.206,2183l-4.143,4.146a3.254,3.254,0,1,0-3.675,3.673l-4.141,4.137,11.959,11.959,11.962-11.959-4.143-4.144a3.255,3.255,0,1,1-3.673-3.673L100.206,2183Z" fill="#ff9800"/>
      <path id="Path_95" data-name="Path 95" d="M30.451,2201.66h4.2m-2.1-2.1v4.2" fill="none" stroke="#5f7af6" stroke-linecap="round" stroke-linejoin="round" stroke-width="2.101"/>
      <path id="Path_96" data-name="Path 96" d="M31.785,2173.022l2.1-3.639m-2.87.769,3.639,2.1" fill="none" stroke="#03a9f4" stroke-linecap="round" stroke-linejoin="round" stroke-width="2.101"/>
      <circle id="Ellipse_48" data-name="Ellipse 48" cx="2.101" cy="2.101" r="2.101" transform="matrix(0.866, 0.5, -0.5, 0.866, 19.97, 2162.173)" fill="#397a88" stroke="#1976d2" stroke-linecap="round" stroke-linejoin="round" stroke-width="2.101"/>
      <path id="Path_97" data-name="Path 97" d="M18.2,2183.086l1.488,1.486m2.981,2.984,1.485,1.483m0-5.952-1.485,1.486m-2.984,2.984-1.485,1.483" fill="none" stroke="#dc3ea7" stroke-linecap="round" stroke-linejoin="round" stroke-width="2.101"/>
      <path id="Path_98" data-name="Path 98" d="M60.515,1565.8v-1.526m0,0a2.994,2.994,0,0,1,1.78-2.586,2.37,2.37,0,0,0,.939-2.766,2.121,2.121,0,0,0-2.378-1.472,2.251,2.251,0,0,0-1.765,2.255m1.424,9.147h0" transform="translate(34.034 595.372)" fill="none" stroke="#263238" stroke-linecap="round" stroke-linejoin="round" stroke-width="2.101"/>
      <path id="Path_99" data-name="Path 99" d="M60.516,1565.808v-1.526m0,0a2.994,2.994,0,0,1,1.78-2.586,2.37,2.37,0,0,0,.939-2.766,2.121,2.121,0,0,0-2.378-1.472,2.251,2.251,0,0,0-1.765,2.255m1.424,9.147h0" transform="translate(1176.412 1033.871) rotate(45)" fill="none" stroke="#263238" stroke-linecap="round" stroke-linejoin="round" stroke-width="2.101"/>
    </g>
  </g>
</svg>
