<svg xmlns="http://www.w3.org/2000/svg" xmlns:xlink="http://www.w3.org/1999/xlink" width="201" height="120" viewBox="0 0 201 120">
  <defs>
    <clipPath id="clip-path">
      <rect id="Rectangle_41" data-name="Rectangle 41" width="201" height="120" transform="translate(977 2930)" fill="#fff" stroke="#707070" stroke-width="1"/>
    </clipPath>
    <radialGradient id="radial-gradient" cx="0.5" cy="0.5" r="0.5" gradientUnits="objectBoundingBox">
      <stop offset="0" stop-color="#dd4bec"/>
      <stop offset="1" stop-color="#7006fa"/>
    </radialGradient>
  </defs>
  <g id="Mask_Group_2" data-name="Mask Group 2" transform="translate(-977 -2930)" opacity="0.86" clip-path="url(#clip-path)">
    <g id="_0f57916f25c9b824e29319a562aaf2c8" data-name="0f57916f25c9b824e29319a562aaf2c8" transform="translate(1017.5 2930)">
      <circle id="Ellipse_25" data-name="Ellipse 25" cx="60" cy="60" r="60" fill="url(#radial-gradient)" style="mix-blend-mode: lighten;isolation: isolate"/>
      <path id="Path_6" data-name="Path 6" d="M49.972,76.515H30.6a2.408,2.408,0,0,1-2.4-2.4v-36a2.407,2.407,0,0,1,2.4-2.4H89.4a2.406,2.406,0,0,1,2.4,2.4v36a2.407,2.407,0,0,1-2.4,2.4H77.149" fill="#fff"/>
      <path id="Path_7" data-name="Path 7" d="M89.4,77.715H77.149a1.2,1.2,0,0,1,0-2.4H89.4a1.2,1.2,0,0,0,1.2-1.2v-36a1.2,1.2,0,0,0-1.2-1.2H30.6a1.2,1.2,0,0,0-1.2,1.2v36a1.2,1.2,0,0,0,1.2,1.2H49.972a1.2,1.2,0,1,1,0,2.4H30.6a3.6,3.6,0,0,1-3.6-3.6v-36a3.6,3.6,0,0,1,3.6-3.6H89.4a3.6,3.6,0,0,1,3.6,3.6v36a3.6,3.6,0,0,1-3.6,3.6Z" fill="#454545"/>
      <g id="Group_1" data-name="Group 1">
        <path id="Path_8" data-name="Path 8" d="M44.985,46.964c3.3,0,5.357,1.5,5.357,3.989a3.494,3.494,0,0,1-2.8,3.555,3.872,3.872,0,0,1,3.42,4.036c0,2.735-2.211,4.376-5.813,4.376h-7.09V46.964h6.931Zm-4.24,6.61h4.1c1.709,0,2.735-.8,2.735-2.142s-1.026-2.074-2.735-2.074h-4.1Zm0,6.954h4.1c2.1,0,3.351-.82,3.351-2.325,0-1.413-1.254-2.257-3.351-2.257h-4.1ZM67.716,56.31c0,4.172-2.621,6.725-6.931,6.725s-6.953-2.554-6.953-6.725V46.964h2.69V56.31a3.982,3.982,0,0,0,4.286,4.309,3.931,3.931,0,0,0,4.217-4.309V46.964h2.691V56.31Zm10.4,6.611H75.446V57.7L69.5,46.964h2.713l4.56,7.773,4.468-7.773h2.735L78.114,57.609V62.92Z" fill="#454545"/>
      </g>
      <path id="Path_9" data-name="Path 9" d="M62.93,68.727a2.446,2.446,0,0,0-3.509-.115,2.415,2.415,0,0,0,.087,3.483l-1.2-1.2a2.444,2.444,0,0,0-3.509-.111,2.41,2.41,0,0,0,.089,3.48l-7.5-7.494a2.412,2.412,0,0,0-3.479-.087,2.444,2.444,0,0,0,.114,3.51L55.8,81.964l-5.62-.195a2.469,2.469,0,0,0-2.449,2.566c.014,1.413.954,2.147,2.325,2.393,4.636.834,16.406,7.266,20,3.672l5.209-5.208s3.956-6.966-.916-11.836L67.591,66.6a2.442,2.442,0,0,0-3.507-.115,2.414,2.414,0,0,0,.088,3.483L62.93,68.727Z" fill="#fff"/>
      <path id="Path_10" data-name="Path 10" d="M66.749,92.685c-3.338,0-7.668-1.6-11.49-3.014a39.864,39.864,0,0,0-5.416-1.76c-2.086-.375-3.293-1.673-3.312-3.562a3.821,3.821,0,0,1,1.083-2.715,3.545,3.545,0,0,1,2.539-1.063l2.647.09-9.623-9.623a3.645,3.645,0,0,1-.114-5.207,3.694,3.694,0,0,1,5.176.087l5,5a3.588,3.588,0,0,1,4.48-1.8,3.556,3.556,0,0,1,.85-1.354,3.62,3.62,0,0,1,3.819-.793,3.562,3.562,0,0,1,.844-1.332,3.725,3.725,0,0,1,5.2.115L75.2,72.51c4.366,4.363,2.636,10.592,1.112,13.277a1.2,1.2,0,0,1-.2.255L70.9,91.25a5.65,5.65,0,0,1-4.154,1.435ZM50.138,82.969a1.143,1.143,0,0,0-.817.352,1.4,1.4,0,0,0-.39,1c0,.347.01.988,1.337,1.226a40.193,40.193,0,0,1,5.824,1.872c3.453,1.276,7.75,2.865,10.658,2.865a3.411,3.411,0,0,0,2.457-.731l5.085-5.084c.49-.94,3.076-6.4-.792-10.263L66.743,67.45A1.463,1.463,0,0,0,65.73,67a1.106,1.106,0,0,0-.8.336,1.214,1.214,0,0,0,.089,1.787,1.2,1.2,0,0,1-1.7,1.7l-1.242-1.242a1.47,1.47,0,0,0-1.014-.451,1.109,1.109,0,0,0-.8.337,1.211,1.211,0,0,0,.081,1.779h0a1.2,1.2,0,0,1,0,1.7h0l0,0,0,0h0l-.042.04,0,0,0,0s0,0,0,0a1.206,1.206,0,0,1-.534.272,1.191,1.191,0,0,1-1.1-.321l-1.2-1.207a1.46,1.46,0,0,0-1.01-.449,1.112,1.112,0,0,0-.8.339,1.123,1.123,0,0,0-.348.846,1.4,1.4,0,0,0,.434.934h0l0,0,0,0s0,0,0,0h0l0,0,0,0s0,0,0,0l0,0s0-.007,0,0l0,0s0,0,0,0,0,0,0,0h0s0,0,0,0h0l0,0s.005,0,0,0,0,0,0,0,0,0,0,0h0l0,0h0s0,0,0,0,0,.006,0,0l0,0h0s0,0,0,0,0,0,0,0h0l0,0h0s0,0,0,0,0,0,0,0,0,0,0,0a.005.005,0,0,0,0,0s0,0,0,0l0,0h0l0,0h0l0,0h0l0,0h0l0,0h0l0,0s0,.007,0,0,0,0,0,0l0,0s0,.006,0,0,0,0,0,0l0,0s0,0,0,0h0l0,0h0l0,0s0,0,0,0,0,0,0,0-.005,0,0,0h0l0,0h0l0,0h0s0,0,0,0l0,0s-.005-.008,0,0h0l0,0h0l0,0,0,0,0,0,0,0,0,0,0,0,0,0,0,0,0,0a1.2,1.2,0,0,1,.168.947.03.03,0,0,1,0,.007v0h0a.006.006,0,0,0,0,0s.006,0,0,0h0a.005.005,0,0,0,0,0h0a.007.007,0,0,1,0,0h0a.006.006,0,0,0,0,0s0,0,0,0a.005.005,0,0,1,0,0s0,0,0,0,0,0,0,0h0v0a.006.006,0,0,1,0,0s0,0,0,0v0h0a.007.007,0,0,0,0,0h0s0,0,0,0h0s0,0,0,0,0,0,0,0,0,0,0,0,0,0,0,0,0,0,0,0h0a0,0,0,0,1,0,0s0,0,0,0v0s0,0,0,0h0s0,.006,0,0,0,0,0,0h0s0,0,0,0,0,0,0,0a.006.006,0,0,0,0,0v0s0,0,0,0v0l0,.007a1.2,1.2,0,0,1-.227.393l0,0,0,0h0s0,0,0,0l0,0s0,0,0,0,.009,0,0,0l0,0,0,0,0,0h0l0,0s.011,0,0,0,0,0,0,0h0s0,0,0,0,0,0,0,0,0,0,0,0,0,0,0,0,0,0,0,0l0,0h0s0,0,0,0,0,0,0,0,0,0,0,0h0s0,0,0,0l0,0s0,0,0,0l0,0,0,0s0,0,0,0,0,0,0,0h0l0,0h0l0,0s0,0,0,0,0,0,0,0l0,0s0,0,0,0l0,0a1.28,1.28,0,0,1-.835.315h-.029a1.187,1.187,0,0,1-.746-.306l0,0,0,0,0,0h0l0,0,0,0s0,0,0,0,0,0,0,0h0l0,0s0,0,0,0l0,0s0,0,0,0h0l0,0s0,0,0,0,0,0,0,0,0,0,0,0,0,0,0,0h0l-7.5-7.5a1.237,1.237,0,0,0-1.782-.087,1.253,1.253,0,0,0,.114,1.813L56.648,81.116a1.2,1.2,0,0,1,.252,1.327,1.167,1.167,0,0,1-1.142.721l-5.62-.195Z" fill="#454545"/>
    </g>
  </g>
</svg>
