<svg xmlns="http://www.w3.org/2000/svg" xmlns:xlink="http://www.w3.org/1999/xlink" width="119.627" height="139.555" viewBox="0 0 119.627 139.555">
  <defs>
    <linearGradient id="linear-gradient" x1="1.878" y1="0.5" x2="-0.249" y2="0.5" gradientUnits="objectBoundingBox">
      <stop offset="0" stop-color="#5a7cf7"/>
      <stop offset="1" stop-color="#dd4bec"/>
    </linearGradient>
  </defs>
  <g id="Group_3" data-name="Group 3" transform="translate(-8 -4.004)">
    <path id="Path_34" data-name="Path 34" d="M123.643,24.938V72.29c0,23.676-14.33,40.5-28.661,51.39a115.789,115.789,0,0,1-28.661,15.9S9,119.643,9,72.29V24.938L66.321,5Z" transform="translate(1.492 1.486)" fill="#eceff1"/>
    <path id="Path_35" data-name="Path 35" d="M89.321,24.938V72.29c0,23.676-14.33,40.5-28.661,51.39A115.789,115.789,0,0,1,32,139.58V5Z" transform="translate(35.814 1.486)" fill="#cfd8dc"/>
    <path id="Path_36" data-name="Path 36" d="M67.814,143.559a2.492,2.492,0,0,1-.822-.15C66.393,143.21,8,122.35,8,73.777V26.424a2.492,2.492,0,0,1,1.67-2.343L66.991,4.144a2.492,2.492,0,0,1,1.645,0l57.321,19.938a2.492,2.492,0,0,1,1.67,2.343V73.777c0,20.187-10.243,38.63-29.658,53.384a117.135,117.135,0,0,1-29.358,16.274A2.492,2.492,0,0,1,67.814,143.559ZM12.984,28.194V73.777c0,41.969,47.926,61.982,54.829,64.624a116.089,116.089,0,0,0,27.14-15.228c18.368-13.956,27.689-30.58,27.689-49.4V28.194L67.814,9.128Z" transform="translate(0 0)" fill="#494949"/>
    <path id="Path_37" data-name="Path 37" d="M107.7,24.953V64.829c0,18.692-11.838,32.4-23.676,41.421a101.559,101.559,0,0,1-23.676,13.408A101.185,101.185,0,0,1,38.072,107.2C25.785,98.3,13,84.244,13,64.829V24.953L60.352,10l39.876,12.461Z" transform="translate(7.461 8.947)" fill="url(#linear-gradient)"/>
    <path id="Path_38" data-name="Path 38" d="M57.368,12v99.689a96.451,96.451,0,0,1-14.8-7.477C30.277,95.315,15,81.259,15,61.845V24.461Z" transform="translate(10.446 11.932)" fill="url(#linear-gradient)"/>
    <path id="Path_39" data-name="Path 39" d="M61.846,123.711a2.492,2.492,0,0,1-.872-.15C58.98,122.814,12,105.069,12,66.39V26.514a2.492,2.492,0,0,1,1.745-2.492L61.1,9.069a2.492,2.492,0,0,1,1.5,0l47.352,14.953a2.492,2.492,0,0,1,1.745,2.492V66.39c0,16.1-8.523,31.1-24.648,43.415a103.229,103.229,0,0,1-24.324,13.757A2.492,2.492,0,0,1,61.846,123.711ZM16.986,28.334V66.39c0,32.524,38.555,49.6,44.86,52.162A101.659,101.659,0,0,0,84,105.842c15.078-11.489,22.7-24.748,22.7-39.452V28.334l-44.86-14.28Z" transform="translate(5.967 7.386)" fill="#494949" opacity="0.77"/>
    <path id="Path_40" data-name="Path 40" d="M23,27H62.876V51.922H23Z" transform="translate(22.383 34.315)" fill="#b0bec5"/>
    <path id="Path_41" data-name="Path 41" d="M23,27H45.43V56.907H23Z" transform="translate(22.383 34.315)" fill="#cfd8dc"/>
    <path id="Path_42" data-name="Path 42" d="M67.86,27V56.907H23V51.922H62.876V27Z" transform="translate(22.383 34.315)" fill="#90a4ae"/>
    <path id="Path_43" data-name="Path 43" d="M69.352,37.938H61.876V32.953a14.953,14.953,0,0,0-29.907,0v4.984H24.492A2.492,2.492,0,0,0,22,40.43V70.337a2.492,2.492,0,0,0,2.492,2.492h44.86a2.492,2.492,0,0,0,2.492-2.492V40.43A2.492,2.492,0,0,0,69.352,37.938Zm-32.4-4.984a9.969,9.969,0,0,1,19.938,0v4.984H36.953ZM66.86,67.845H26.984V42.922H66.86Z" transform="translate(20.891 20.885)" fill="#494949"/>
    <path id="Path_44" data-name="Path 44" d="M33.492,40.969A2.492,2.492,0,0,1,31,38.477V33.492a2.492,2.492,0,1,1,4.984,0v4.984A2.492,2.492,0,0,1,33.492,40.969Z" transform="translate(34.321 40.284)" fill="#494949"/>
  </g>
</svg>
