<svg xmlns="http://www.w3.org/2000/svg" xmlns:xlink="http://www.w3.org/1999/xlink" width="160" height="96" viewBox="0 0 160 96">
  <defs>
    <clipPath id="clip-path">
      <rect id="Rectangle_29" data-name="Rectangle 29" width="160" height="96" transform="translate(1617 1520)" fill="#fff" stroke="#707070" stroke-width="1"/>
    </clipPath>
    <linearGradient id="linear-gradient" x1="0.5" x2="0.742" y2="0.848" gradientUnits="objectBoundingBox">
      <stop offset="0" stop-color="#dd4bec"/>
      <stop offset="0.757" stop-color="#7a70f4"/>
      <stop offset="1" stop-color="#5a7cf7"/>
    </linearGradient>
    <linearGradient id="linear-gradient-2" x1="0.5" x2="0.5" y2="1" gradientUnits="objectBoundingBox">
      <stop offset="0" stop-color="#dd4bec"/>
      <stop offset="1" stop-color="#5a7cf7"/>
    </linearGradient>
  </defs>
  <g id="Mask_Group_15" data-name="Mask Group 15" transform="translate(-1617 -1520)" opacity="0.87" clip-path="url(#clip-path)">
    <g id="bb718ced253fbf0e4e2e166901ad1b28" transform="translate(1653.337 1520)">
      <circle id="Ellipse_50" data-name="Ellipse 50" cx="47.902" cy="47.902" r="47.902" transform="translate(0)" fill="url(#linear-gradient)"/>
      <path id="Path_114" data-name="Path 114" d="M22.3,4861.972q1.656.311,3.331.5,2.382.237,4.779.236,1.7,0,3.39-.122a47.324,47.324,0,0,0,9.422-1.628q2.31-.637,4.547-1.5a47.944,47.944,0,0,0,19.279-13.788q1.542-1.834,2.9-3.814t2.506-4.083a47.751,47.751,0,0,0,2.086-4.312q.932-2.2,1.64-4.494a49.236,49.236,0,0,0,1.9-9.379q.237-2.382.236-4.779,0-1.7-.122-3.39-.169-2.349-.567-4.672L56.2,4785.329H4.615v58.956L22.3,4861.968Z" transform="translate(17.493 -4766.905)" fill="url(#linear-gradient-2)"/>
      <path id="Path_115" data-name="Path 115" d="M4.615,0V58.956H56.2V0ZM8.3,3.685H52.517V55.271H8.3ZM11.985,7.37V22.109H26.724V7.37Zm18.424,0v3.685H48.832V7.37ZM15.669,11.054h7.37v7.37h-7.37Zm14.739,3.685v3.685H48.832V14.739ZM11.985,25.793v3.685H48.832V25.793Zm0,7.37v3.685H30.409V33.163Zm29.478,3.685a7.37,7.37,0,1,0,7.37,7.37A7.4,7.4,0,0,0,41.463,36.848ZM11.985,40.532v3.685H30.409V40.532Zm29.478,0a3.685,3.685,0,1,1-3.685,3.685A3.658,3.658,0,0,1,41.463,40.532ZM11.985,47.9v3.685H30.409V47.9Z" transform="translate(17.493 18.435)" fill="#fff"/>
    </g>
  </g>
</svg>
